<svg width="1000" height="1000" viewBox="0 0 1000 1000" fill="none" xmlns="http://www.w3.org/2000/svg">
<g clip-path="url(#clip0_50_2)">
<path d="M237.368 307.692C198.315 307.692 160.863 323.206 133.249 350.82L43.1277 440.941C15.5135 468.555 0 506.008 0 545.06C0 626.383 65.9249 692.308 147.247 692.308C186.3 692.308 223.753 676.794 251.367 649.179L313.704 586.842C313.705 586.844 313.704 586.841 313.704 586.842L495.333 405.213C508.522 392.024 526.409 384.615 545.06 384.615C576.286 384.615 602.759 404.967 611.937 433.129L669.259 375.807C643.109 334.851 597.256 307.692 545.06 307.692C506.008 307.692 468.555 323.206 440.941 350.82L196.974 594.787C183.786 607.976 165.899 615.385 147.247 615.385C108.408 615.385 76.9231 583.9 76.9231 545.06C76.9231 526.409 84.3322 508.522 97.5205 495.333L187.641 405.213C200.829 392.024 218.717 384.615 237.368 384.615C268.595 384.615 295.067 404.968 304.245 433.131L361.568 375.809C335.418 334.851 289.565 307.692 237.368 307.692Z" fill="white"/>
<path d="M504.667 594.787C491.478 607.976 473.591 615.385 454.94 615.385C423.718 615.385 397.247 595.038 388.067 566.881L330.746 624.201C356.897 665.153 402.747 692.308 454.94 692.308C493.992 692.308 531.445 676.794 559.059 649.179L803.026 405.213C816.214 392.024 834.101 384.615 852.753 384.615C891.592 384.615 923.077 416.101 923.077 454.94C923.077 473.591 915.668 491.478 902.479 504.667L812.359 594.787C799.17 607.976 781.283 615.385 762.632 615.385C731.408 615.385 704.936 595.035 695.756 566.874L638.436 624.196C664.586 665.151 710.437 692.308 762.632 692.308C801.685 692.308 839.137 676.794 866.751 649.179L956.872 559.059C984.486 531.445 1000 493.992 1000 454.94C1000 373.617 934.076 307.692 852.753 307.692C813.7 307.692 776.247 323.206 748.633 350.82L504.667 594.787Z" fill="white"/>
</g>
<defs>
<clipPath id="clip0_50_2">
<rect width="1000" height="800" fill="white" transform="translate(0 100)"/>
</clipPath>
</defs>
</svg>
